<?xml version="1.0" encoding="UTF-8"?><svg id="logo_usługi_ogrodnicze_mateusz_bernacki" xmlns="http://www.w3.org/2000/svg" viewBox="0 0 1077.17 302.74"><defs><style>.cls-1{fill:#fff;}.cls-1,.cls-2{fill-rule:evenodd;}.cls-2,.cls-3{fill:#58b788;}.cls-4{fill:#074c50;}</style></defs><g id="sygnet"><path class="cls-4" d="M54.15,274.4h-25.8v-28.5c5.65,2.13,10.72,5.43,14.9,9.63,3.23,3.23,5.94,6.98,7.99,11.12,1.21,2.46,2.2,5.05,2.91,7.75Z"/><path class="cls-4" d="M75.67,274.4h-10.71c-.14-.7-.31-1.38-.48-2.07-.88-3.47-2.1-6.81-3.63-9.97-2.58-5.32-6.03-10.14-10.16-14.28-6.14-6.14-13.79-10.77-22.35-13.28v-10.88c11.47,2.76,21.72,8.65,29.79,16.71,4.73,4.73,8.72,10.21,11.75,16.25.59,1.15,1.14,2.33,1.65,3.52.9,2.1,1.69,4.26,2.36,6.48h0c.75,2.45,1.34,4.95,1.78,7.51Z"/><path class="cls-4" d="M96.95,274.4h-10.62c-.75-5.11-2.03-10.04-3.77-14.75-1.77-4.78-4.02-9.33-6.71-13.57-2.94-4.67-6.39-8.99-10.27-12.88-9.98-9.99-22.84-17.12-37.22-20.06v-10.71c17.3,3.08,32.76,11.43,44.66,23.34,2.8,2.8,5.4,5.8,7.79,8.97,2.49,3.31,4.74,6.82,6.72,10.49,2.43,4.47,4.47,9.2,6.05,14.12,1.57,4.84,2.71,9.88,3.38,15.06Z"/><path class="cls-4" d="M118.1,274.15c-2.09.06-4.24.11-6.46.16-1.35.02-2.72.04-4.11.06-.59-5.11-1.58-10.09-2.94-14.92-1.4-5-3.22-9.83-5.4-14.45-.24-.52-.49-1.03-.74-1.53-1.6-3.26-3.38-6.4-5.33-9.43-.16-.24-.31-.47-.47-.71-1.93-2.94-4.02-5.78-6.27-8.48-1.87-2.26-3.86-4.44-5.94-6.53-13.82-13.82-31.9-23.38-52.1-26.55v-10.64c23.12,3.26,43.81,14.02,59.55,29.75,1.63,1.63,3.21,3.32,4.73,5.06,2,2.28,3.89,4.64,5.7,7.09.35.48.7.97,1.05,1.45,2,2.82,3.87,5.75,5.58,8.76.17.29.34.59.5.89,2.03,3.63,3.84,7.4,5.43,11.28,1.92,4.68,3.51,9.53,4.73,14.52,1.15,4.63,1.98,9.38,2.5,14.22Z"/><path class="cls-4" d="M149.3,193.1c4.17.47,7.84,1.12,11.05,1.92-16.55,4.3-31.32,12.96-43.05,24.67-.39.39-.77.78-1.16,1.18-1.31,1.35-2.58,2.75-3.81,4.19-.67-1.1-1.36-2.18-2.06-3.26-1.29-1.96-2.63-3.87-4.02-5.75,1.17-1.3,2.38-2.57,3.62-3.81.07-.07.14-.14.21-.21,1.4-1.4,2.85-2.76,4.34-4.07,17.64-15.66,40.59-25.48,65.83-26.43-3.08,5.24-11.14,9.88-30.94,11.57Z"/><path class="cls-4" d="M132.18,234.56c-3.61,3.61-6.85,7.6-9.64,11.9-1.39-3.91-2.98-7.72-4.77-11.42,2.16-2.78,4.49-5.42,6.98-7.91,13.56-13.56,31.73-22.5,51.97-24.3,3.51,3.28,4.9,6.9,5.22,10.22-19.42.59-36.94,8.7-49.75,21.51Z"/><path class="cls-4" d="M181.99,223.58v10.52c-13.64.57-25.92,6.33-34.94,15.35-6.51,6.51-11.33,14.74-13.71,23.94-1.53.11-3.11.22-4.72.31-.43-4.35-1.1-8.63-2-12.82,3.16-7.07,7.59-13.46,13-18.87,10.92-10.91,25.83-17.84,42.37-18.42Z"/><path class="cls-4" d="M181.99,244.63v.32c0,2.98-.39,5.69-1.19,8.13-.26.8-.56,1.56-.91,2.3-1.42,3.03-3.58,5.61-6.56,7.81h0c-2.25,1.67-4.97,3.11-8.17,4.35-2.3.89-4.86,1.68-7.68,2.38-3.77.94-8.02,1.7-12.78,2.32,1.81-4.97,4.52-9.5,7.94-13.39h0c.59-.67,1.21-1.34,1.85-1.97,2.36-2.36,4.99-4.44,7.85-6.19h0c5.77-3.52,12.46-5.7,19.63-6.07Z"/><path class="cls-4" d="M106.05,187.74c0,.6,0,1.2-.02,1.79-.01.49-.02.98-.04,1.47,0,.13-.01.26-.02.39-.02.57-.05,1.14-.09,1.7-.03.54-.07,1.08-.11,1.62-.01.09-.02.17-.02.27-.04.46-.08.92-.13,1.38-.01.17-.03.34-.05.5-.06.5-.11,1-.17,1.5-.07.58-.15,1.15-.24,1.73-.07.51-.15,1.02-.24,1.53-.01.06-.02.12-.03.19l-.13.75c-1.81,1.7-3.56,3.47-5.25,5.29-1.92-2.13-3.92-4.19-5.99-6.17-17.41-16.66-40.02-27.94-65.16-31.15v-66.68h.04c.59.05,1.17.1,1.75.16h0c.12.01.25.02.37.04.56.06,1.12.12,1.68.19.5.06.99.12,1.48.19.02,0,.04,0,.06,0,.22.03.44.06.66.09.46.07.92.14,1.38.22.7.12,1.4.24,2.1.37.47.09.95.19,1.42.29.2.04.4.08.6.12.11.02.21.04.31.07,0,0,.01,0,.02,0,.36.07.71.16,1.07.24.21.05.43.11.64.16.46.11.91.22,1.37.34.56.14,1.1.3,1.65.46.24.07.49.14.74.21.03,0,.06.02.09.02.42.12.84.25,1.26.38.01,0,.03,0,.04.01.48.15.96.31,1.43.47,0,0,.02,0,.02,0,.45.15.89.3,1.34.46.32.11.65.22.97.34.32.12.64.24.96.36.48.19.96.37,1.43.56.47.19.95.39,1.42.59.54.23,1.09.46,1.62.7,0,0,0,0,.01,0,.19.09.38.17.57.26.05.02.1.04.15.07.36.16.7.32,1.05.49.08.04.17.08.25.12.04.02.07.04.11.06.53.26,1.05.52,1.58.79.12.06.25.12.37.19.55.28,1.09.57,1.63.87.27.14.54.29.8.44.32.18.65.37.97.56.59.34,1.17.68,1.75,1.03.08.05.17.1.25.16.39.23.77.47,1.15.71.2.13.4.26.6.39.01.01.03.02.04.03.46.29.92.6,1.37.9.5.34,1,.68,1.48,1.03.16.11.32.22.48.34.41.28.8.57,1.2.87.13.09.26.19.39.29.39.29.77.58,1.15.89.12.09.24.18.36.27.44.34.86.68,1.29,1.04.09.06.17.14.26.21.36.29.72.6,1.08.91.17.13.33.27.49.42.02.02.04.04.06.06.25.22.49.44.74.66.1.08.2.17.3.26.34.31.68.61,1.01.93.29.26.57.53.85.8.44.42.88.85,1.31,1.28.49.49.97.98,1.44,1.48.47.49.92.98,1.38,1.48.03.04.07.07.1.12.39.42.76.84,1.14,1.27.07.09.16.18.24.27.37.44.74.87,1.1,1.32.45.53.88,1.07,1.3,1.61.11.14.23.29.34.44.29.37.57.75.85,1.12.01.01.02.03.03.04.26.34.5.67.74,1.01,0,0,.01.02.02.02.19.26.37.51.55.77.02.03.04.06.06.09.01.01.02.02.02.03.03.04.06.07.08.12,0,0,0,0,.01.01.36.52.72,1.05,1.08,1.58.36.54.72,1.09,1.07,1.65.36.56.7,1.11,1.04,1.67h0c.31.52.62,1.05.92,1.58.06.1.12.2.17.3.29.51.57,1.03.85,1.55.32.57.62,1.16.92,1.75,0,.01.01.02.02.03.28.56.56,1.13.84,1.7.02.05.04.09.06.14.23.48.46.97.68,1.45.32.7.64,1.42.94,2.14.21.51.42,1.01.62,1.52.07.17.15.36.21.54.01.03.02.06.04.09.17.44.34.89.51,1.33.02.06.04.12.06.17.04.12.09.23.13.35.2.56.4,1.12.59,1.69.02.07.04.13.07.2.19.59.39,1.18.57,1.77,0,.02.01.04.02.06.16.52.32,1.05.47,1.58.06.21.12.42.18.64,0,.02.01.04.02.07.16.56.31,1.11.45,1.67.01.04.02.09.04.14.16.63.32,1.26.46,1.89.14.59.27,1.19.39,1.79.1.48.19.96.29,1.44.12.64.24,1.28.34,1.93.07.45.14.9.21,1.35.07.46.14.92.19,1.38.13.95.24,1.9.33,2.86.03.32.06.64.09.95.06.64.11,1.29.14,1.93.02.32.04.64.06.97.02.4.04.8.06,1.2.02.67.04,1.36.06,2.04,0,.41,0,.82,0,1.22Z"/><path class="cls-4" d="M181.99,56.87v17.41c-26.01.11-49.52,10.67-66.57,27.71-7.85,7.85-14.33,17.08-19.03,27.29-.29-.37-.59-.74-.89-1.11-.3-.37-.6-.74-.9-1.1-.29-.35-.58-.7-.88-1.04-.57-.66-1.15-1.32-1.73-1.96-.21-.23-.42-.46-.63-.69-.82-.89-1.65-1.75-2.5-2.6-.49-.49-.99-.98-1.49-1.45-.32-.31-.64-.61-.96-.91-.07-.07-.15-.14-.22-.21-.2-.19-.41-.38-.61-.56-.56-.51-1.12-1.01-1.7-1.51-.38-.33-.77-.66-1.16-.99-.48-.41-.96-.8-1.45-1.2-.66-.52-1.31-1.04-1.97-1.54-.37-.29-.75-.57-1.13-.85-.17-.13-.34-.26-.51-.37-.61-.45-1.24-.89-1.85-1.32-.45-.31-.9-.62-1.35-.92-.18-.12-.36-.24-.54-.36-.41-.27-.82-.54-1.24-.8-.55-.35-1.1-.69-1.65-1.02-.3-.19-.61-.37-.91-.54-1.34-.8-2.71-1.57-4.09-2.3-.32-.17-.66-.34-.99-.51-.46-.23-.9-.46-1.37-.69-.58-.28-1.16-.56-1.75-.83-.34-.16-.69-.32-1.03-.47-.34-.16-.67-.31-1.02-.46-.4-.17-.8-.35-1.2-.52-.65-.27-1.3-.54-1.96-.8-2.63-1.04-5.31-1.96-8.05-2.76-.34-.1-.69-.2-1.03-.29-1.37-.39-2.76-.74-4.16-1.07-.26-.06-.52-.12-.77-.18-.46-.1-.92-.2-1.38-.29-.34-.07-.68-.14-1.02-.21-.32-.06-.65-.12-.97-.19-1.51-.28-3.03-.52-4.57-.73-.31-.04-.61-.08-.92-.12-.36-.05-.72-.09-1.09-.13-1.09-.12-2.19-.23-3.29-.32-.37-.03-.74-.06-1.1-.08V28.35h71.1c52.3,0,82.55,4.91,82.55,28.53Z"/><path class="cls-4" d="M181.99,84.8v86.17c-24.48.47-47.08,8.52-65.57,21.9.02-.49.05-.97.07-1.46.01-.41.03-.81.04-1.22.02-.81.03-1.63.03-2.45,0-1.12-.02-2.24-.06-3.35-.02-.4-.03-.8-.06-1.2-.02-.51-.05-1.02-.08-1.53-.02-.33-.04-.66-.07-.99-.21-2.88-.55-5.73-1.02-8.53-.06-.34-.11-.69-.17-1.03-.14-.82-.3-1.65-.47-2.46-.07-.39-.16-.77-.24-1.15-.06-.3-.13-.61-.2-.9-.54-2.38-1.17-4.72-1.89-7.02-.07-.24-.14-.48-.22-.72-.17-.54-.35-1.09-.54-1.62-.11-.33-.22-.66-.34-.97-.06-.17-.11-.33-.17-.5-.09-.27-.19-.54-.29-.8-.16-.45-.33-.89-.51-1.34-.36-.92-.72-1.84-1.11-2.75-.13-.31-.26-.62-.41-.94-.02-.07-.05-.14-.09-.21-.14-.32-.28-.65-.43-.97-.4-.89-.81-1.77-1.24-2.64-.17-.36-.36-.73-.54-1.09-.23-.46-.47-.91-.7-1.37,0-.02-.02-.04-.03-.06-.47-.89-.95-1.77-1.45-2.63-.24-.44-.49-.87-.75-1.3,0-.01-.01-.02-.02-.03,4.25-11.46,10.92-21.73,19.4-30.21,15.13-15.13,36.02-24.53,59.12-24.64Z"/><path class="cls-1" d="M128.3,175.15c-1.43-.02-2.84.04-4.27.28l14.71-18.76-17.61,17c-.51-19.27,10.32-30.78,33.33-27.7-.79,3.91-1.34,7.87-2.41,11.68-3.09,11-12.22,17.64-23.74,17.49Z"/><path class="cls-2" d="M96.17,109.15c-.73,1.23-1.38,2.49-1.88,3.85l-8.99-22.08,6.02,23.73c-16.98-9.12-21.6-24.22-7.52-42.68,3,2.63,6.17,5.07,8.95,7.89,8.01,8.14,9.25,19.36,3.41,29.29Z"/><path class="cls-2" d="M139.31,78.18c-1.37.42-2.7.91-3.98,1.57l8.26-22.36-11.56,21.58c-6.38-18.19.4-32.46,23.25-36.57.44,3.96,1.13,7.9,1.28,11.86.42,11.42-6.23,20.53-17.24,23.92Z"/><path class="cls-2" d="M70.69,126.51c.83.96,1.71,1.87,2.71,2.67l-21.15,1.33,21.71,1.64c-12.5,11.73-26.54,11.35-38.1-5.75,3.06-1.79,6.02-3.77,9.18-5.31,9.13-4.45,18.93-2.32,25.65,5.42Z"/><path class="cls-1" d="M64.45,90.49c-.08.87-.1,1.74-.02,2.62l-10.8-9.82,9.59,11.52c-11.79-.55-18.33-7.68-15.42-21.59,2.35.66,4.75,1.17,7.03,2,6.58,2.38,10.22,8.25,9.62,15.28Z"/><path class="cls-1" d="M117.84,93.17c-.62.62-1.19,1.27-1.69,2l-2-14.46v14.99c-8.71-7.97-9.17-17.63,1.97-26.46,1.38,2.01,2.9,3.94,4.12,6.03,3.53,6.04,2.57,12.88-2.39,17.89Z"/><path class="cls-1" d="M131.04,115.41c-.8-.71-1.62-1.38-2.55-1.94l17.51-3.34-18.28.92c9.18-11.11,20.94-12.27,32.39.77-2.37,1.81-4.62,3.78-7.1,5.4-7.15,4.68-15.55,3.93-21.97-1.81Z"/><path class="cls-2" d="M113.98,142.38c-.89-.35-1.79-.64-2.74-.82l13.58-8.29-14.99,6.52c4.19-12.17,13.64-16.84,27.32-9.54-1.41,2.26-2.68,4.61-4.24,6.74-4.5,6.15-11.76,8.18-18.93,5.39Z"/><path class="cls-2" d="M97.73,175.1c.54.79,1.11,1.54,1.79,2.23l-15.89-.86,16.05,3.12c-10.34,7.66-20.78,6.15-27.91-7.61,2.44-1.06,4.82-2.28,7.31-3.16,7.2-2.52,14.32-.08,18.66,6.28Z"/><path class="cls-1" d="M90.49,149.69c.5.61,1.03,1.19,1.64,1.71l-13.18.43,13.47,1.43c-7.99,7.06-16.72,6.56-23.59-4.29,1.94-1.05,3.81-2.23,5.81-3.13,5.76-2.6,11.82-1.09,15.85,3.85Z"/></g><g id="tagline_mateusz_bernacki"><path class="cls-3" d="M489.08,238.13v24.02h-2.44v-19.21l-9.44,16.16h-1.2l-9.44-16.06v19.11h-2.44v-24.02h2.09l10.43,17.81,10.33-17.81h2.09Z"/><path class="cls-3" d="M515.4,255.73h-13.38l-2.88,6.42h-2.64l10.98-24.02h2.5l10.98,24.02h-2.68l-2.88-6.42ZM514.47,253.67l-5.76-12.9-5.76,12.9h11.53Z"/><path class="cls-3" d="M531.83,240.32h-8.44v-2.2h19.42v2.2h-8.44v21.82h-2.54v-21.82Z"/><path class="cls-3" d="M567.27,259.95v2.2h-16.98v-24.02h16.47v2.2h-13.93v8.54h12.42v2.16h-12.42v8.92h14.45Z"/><path class="cls-3" d="M579.08,259.67c-1.74-1.78-2.61-4.38-2.61-7.79v-13.76h2.54v13.66c0,2.79.63,4.87,1.89,6.25,1.26,1.37,3.08,2.06,5.46,2.06s4.23-.69,5.49-2.06c1.26-1.37,1.89-3.45,1.89-6.25v-13.66h2.47v13.76c0,3.41-.86,6-2.59,7.79s-4.15,2.68-7.26,2.68-5.54-.89-7.27-2.68Z"/><path class="cls-3" d="M608.77,261.49c-1.64-.57-2.9-1.33-3.79-2.26l.99-1.96c.87.87,2.02,1.57,3.47,2.11,1.44.54,2.93.81,4.46.81,2.15,0,3.76-.39,4.84-1.18,1.08-.79,1.61-1.81,1.61-3.07,0-.96-.29-1.73-.87-2.3-.58-.57-1.3-1.01-2.14-1.32s-2.02-.65-3.53-1.01c-1.81-.46-3.25-.9-4.32-1.32-1.08-.42-2-1.07-2.76-1.94-.77-.87-1.15-2.05-1.15-3.53,0-1.21.32-2.32.96-3.31.64-1,1.62-1.79,2.95-2.39,1.33-.59,2.97-.89,4.94-.89,1.37,0,2.72.19,4.03.57,1.31.38,2.45.9,3.41,1.56l-.86,2.02c-1.01-.66-2.08-1.16-3.23-1.49-1.14-.33-2.26-.5-3.36-.5-2.1,0-3.69.41-4.75,1.22s-1.6,1.86-1.6,3.14c0,.96.29,1.73.87,2.32.58.58,1.32,1.03,2.2,1.34s2.06.65,3.55,1.01c1.76.43,3.19.86,4.27,1.29,1.09.42,2.01,1.06,2.76,1.92s1.13,2.02,1.13,3.48c0,1.21-.33,2.32-.98,3.31-.65.99-1.65,1.78-3,2.37-1.35.58-3.01.87-4.98.87-1.78,0-3.49-.29-5.13-.86Z"/><path class="cls-3" d="M649.14,259.95v2.2h-19.69v-1.75l15.92-20.07h-15.68v-2.2h19.04v1.75l-15.89,20.07h16.3Z"/><path class="cls-3" d="M688.79,251.8c.86,1.02,1.29,2.33,1.29,3.93,0,2.06-.76,3.64-2.28,4.75-1.52,1.11-3.77,1.66-6.74,1.66h-11.05v-24.02h10.36c2.68,0,4.75.54,6.23,1.61,1.48,1.08,2.21,2.6,2.21,4.56,0,1.33-.33,2.45-.98,3.38s-1.55,1.62-2.69,2.08c1.58.34,2.8,1.02,3.65,2.04ZM672.54,240.22v8.71h7.65c1.94,0,3.44-.37,4.49-1.12,1.05-.74,1.58-1.82,1.58-3.24s-.53-2.5-1.58-3.24-2.55-1.11-4.49-1.11h-7.65ZM685.89,258.95c1.1-.73,1.65-1.88,1.65-3.43,0-3-2.17-4.49-6.52-4.49h-8.47v9.02h8.47c2.15,0,3.77-.37,4.87-1.1Z"/><path class="cls-3" d="M716.29,259.95v2.2h-16.98v-24.02h16.47v2.2h-13.93v8.54h12.42v2.16h-12.42v8.92h14.45Z"/><path class="cls-3" d="M742.09,262.14l-5.49-7.72c-.62.07-1.26.1-1.92.1h-6.45v7.62h-2.54v-24.02h8.99c3.06,0,5.47.73,7.21,2.2,1.74,1.46,2.61,3.48,2.61,6.04,0,1.88-.48,3.46-1.42,4.75-.95,1.29-2.31,2.22-4.07,2.8l5.87,8.23h-2.78ZM740.06,250.79c1.26-1.05,1.89-2.53,1.89-4.43s-.63-3.44-1.89-4.48c-1.26-1.04-3.08-1.56-5.46-1.56h-6.38v12.04h6.38c2.38,0,4.2-.53,5.46-1.58Z"/><path class="cls-3" d="M774,238.13v24.02h-2.09l-15.44-19.49v19.49h-2.54v-24.02h2.09l15.47,19.49v-19.49h2.51Z"/><path class="cls-3" d="M800.31,255.73h-13.38l-2.88,6.42h-2.64l10.98-24.02h2.5l10.98,24.02h-2.68l-2.88-6.42ZM799.39,253.67l-5.76-12.9-5.76,12.9h11.53Z"/><path class="cls-3" d="M816.94,260.77c-1.91-1.05-3.41-2.51-4.49-4.37-1.09-1.86-1.63-3.95-1.63-6.26s.54-4.4,1.63-6.26c1.09-1.86,2.59-3.32,4.51-4.37s4.07-1.58,6.45-1.58c1.78,0,3.43.3,4.94.89,1.51.6,2.79,1.46,3.84,2.61l-1.61,1.61c-1.88-1.9-4.24-2.85-7.1-2.85-1.9,0-3.63.43-5.18,1.3-1.56.87-2.77,2.06-3.65,3.57-.88,1.51-1.32,3.2-1.32,5.08s.44,3.57,1.32,5.08c.88,1.51,2.1,2.7,3.65,3.57s3.28,1.3,5.18,1.3c2.88,0,5.25-.96,7.1-2.88l1.61,1.61c-1.05,1.14-2.34,2.02-3.86,2.62-1.52.61-3.17.91-4.96.91-2.38,0-4.52-.53-6.43-1.58Z"/><path class="cls-3" d="M848.49,250.86l-4.91,4.97v6.31h-2.54v-24.02h2.54v14.51l14.1-14.51h2.92l-10.4,10.88,11.12,13.14h-3.02l-9.81-11.29Z"/><path class="cls-3" d="M868.87,238.13h2.54v24.02h-2.54v-24.02Z"/></g><g id="logo_usugi_ogrodnicze"><path class="cls-4" d="M303.01,176.16c-8.69,0-15.55-3.18-15.55-15.38V41.07h11.54v123.22c0,1,.33,4.51,4.01,4.51,3.18,0,4.35-2.68,4.35-4.51V41.07h11.54v119.71c0,11.7-7.69,15.38-15.88,15.38Z"/><path class="cls-4" d="M353.84,176.16c-8.69,0-15.55-3.18-15.55-15.38v-16.38h11.54v19.06c0,3.34,1.34,5.35,4.18,5.35s4.18-2.34,4.18-5.35v-19.06c0-1.5,0-3.01-.5-4.51-.67-1.84-2.17-3.01-4.18-3.85l-8.69-4.01c-4.51-2.01-6.52-6.52-6.52-10.87V55.95c0-12.21,6.85-15.38,15.55-15.38,8.19,0,15.88,3.85,15.88,15.21v61.36h-11.54V52.6c0-1.5-.67-4.68-4.18-4.68s-4.18,3.01-4.18,4.51v65.54c0,4.51,1.84,6.02,6.02,7.86l6.69,2.84c4.35,1.84,7.19,6.35,7.19,11.04v20.9c0,11.7-7.86,15.55-15.88,15.55Z"/><path class="cls-4" d="M389.45,138.37l-3.68,1v-8.53l3.68-1V41.07h11.54v85.77l6.85-1.84v8.53l-6.85,1.84v31.93h8.53v7.86h-20.06v-36.78Z"/><path class="cls-4" d="M442.28,176.16c-8.69,0-15.55-3.18-15.55-15.38V41.07h11.54v123.22c0,1,.33,4.51,4.01,4.51,3.18,0,4.35-2.68,4.35-4.51V41.07h11.54v119.71c0,11.7-7.69,15.38-15.88,15.38Z"/><path class="cls-4" d="M494.27,176.16c-8.69,0-15.55-3.01-15.55-15.21V55.95c0-12.21,6.85-15.38,15.55-15.38,8.19,0,15.88,3.68,15.88,15.21v53.84l-11.54-.17v-57.01c0-1.5-.67-4.51-4.18-4.51s-4.18,3.01-4.18,4.51v111.85c0,1,.34,4.51,4.01,4.51,3.18,0,4.35-2.68,4.35-4.51v-27.25h-3.68v-8.19h15.21v31.93c0,11.7-7.69,15.38-15.88,15.38Z"/><path class="cls-4" d="M530.05,41.07h11.37v134.09h-11.37V41.07Z"/><path class="cls-4" d="M605.28,176.16c-8.69,0-15.55-3.18-15.55-15.38V55.95c0-12.21,6.85-15.38,15.55-15.38,8.19,0,15.88,3.85,15.88,15.21v105c0,11.7-7.69,15.38-15.88,15.38ZM605.45,47.92c-3.51,0-4.18,3.01-4.18,4.51v111.85c0,1,.33,4.51,4.01,4.51,3.18,0,4.35-2.68,4.35-4.51V52.44c0-1.5-.67-4.51-4.18-4.51Z"/><path class="cls-4" d="M657.27,176.16c-8.69,0-15.55-3.01-15.55-15.21V55.95c0-12.21,6.85-15.38,15.55-15.38,8.19,0,15.88,3.68,15.88,15.21v53.84l-11.54-.17v-57.01c0-1.5-.67-4.51-4.18-4.51s-4.18,3.01-4.18,4.51v111.85c0,1,.33,4.51,4.01,4.51,3.18,0,4.35-2.68,4.35-4.51v-27.25h-3.68v-8.19h15.21v31.93c0,11.7-7.69,15.38-15.88,15.38Z"/><path class="cls-4" d="M712.78,142.39c0-1.84-.84-5.35-4.51-5.35h-3.85v38.12h-11.54V41.07h16.38c10.53,0,15.05,4.85,15.05,17.56v62.03c0,4.18-.84,8.86-6.69,10.2,5.52,1.67,6.69,7.36,6.69,11.7v32.6h-11.54v-32.77ZM708.26,49.26h-3.85v79.75h4.35c3.01,0,4.01-2.84,4.01-4.51V54.61c0-1.84-.67-5.35-4.51-5.35Z"/><path class="cls-4" d="M760.26,176.16c-8.69,0-15.55-3.18-15.55-15.38V55.95c0-12.21,6.85-15.38,15.55-15.38,8.19,0,15.88,3.85,15.88,15.21v105c0,11.7-7.69,15.38-15.88,15.38ZM760.43,47.92c-3.51,0-4.18,3.01-4.18,4.51v111.85c0,1,.33,4.51,4.01,4.51,3.18,0,4.35-2.68,4.35-4.51V52.44c0-1.5-.67-4.51-4.18-4.51Z"/><path class="cls-4" d="M811.25,175.16h-14.55V41.07h14.55c10.7,0,16.89,3.68,16.89,14.55v103.99c0,12.37-5.69,15.55-16.89,15.55ZM811.58,48.42h-3.34v118.87h3.34c3.01,0,5.02-2.17,5.02-5.02V53.44c0-2.67-1.67-5.02-5.02-5.02Z"/><path class="cls-4" d="M860.07,45.58s1.67-5.18,9.86-5.18c6.19,0,10.2,4.01,10.2,12.71v123.05h-11.54V54.28c0-2.67-.33-5.18-4.18-5.18s-4.18,2.51-4.18,5.18v121.88h-11.54V41.07h11.54l-.17,4.51Z"/><path class="cls-4" d="M900.86,41.07h11.37v134.09h-11.37V41.07Z"/><path class="cls-4" d="M948.34,176.16c-8.69,0-15.55-3.01-15.55-15.21V55.95c0-12.21,6.85-15.38,15.55-15.38,8.19,0,15.88,3.68,15.88,15.21v61.36h-11.54V52.44c0-1.5-.67-4.51-4.18-4.51s-4.18,3.01-4.18,4.51v111.85c0,1,.33,4.51,4.01,4.51,3.18,0,4.35-2.68,4.35-4.51v-27.25h11.54v23.74c0,11.7-7.69,15.38-15.88,15.38Z"/><path class="cls-4" d="M1027.08,41.07h21.74v8.19h-10.2v79.75h10.2v8.02h-10.2v30.26h10.2v8.19h-21.74V41.07Z"/><polygon class="cls-4" points="1007.58 41.17 982.03 41.17 982.03 49.26 995.76 49.26 982.03 167.3 982.03 175.16 1007.58 175.16 1007.58 167.3 993.63 167.3 1007.58 49.26 1007.58 41.17"/></g></svg>