<?xml version="1.0" encoding="UTF-8"?>
<svg id="logo_x5F_usługi_ogrodnicze_mateusz_bernacki" xmlns="http://www.w3.org/2000/svg" version="1.1" viewBox="0 0 841.9 595.3">
  <!-- Generator: Adobe Illustrator 30.0.0, SVG Export Plug-In . SVG Version: 2.1.1 Build 123)  -->
  <defs>
    <style>
      .st0, .st1 {
        fill: #58b788;
      }

      .st2, .st3 {
        fill: #fff;
      }

      .st2, .st1 {
        fill-rule: evenodd;
      }

      .st3 {
        display: none;
      }

      .st4 {
        fill: #074c50;
      }
    </style>
  </defs>
  <path id="obrys_b" class="st3" d="M496.3,245.3v-30.4c0-8-5.7-18.4-32.6-21.5,28.5-2.5,32.6-11,32.6-18.7V57.2c0-23.6-30.2-28.5-82.4-28.5h-71v246.1h71c59.5,0,82.4-6.4,82.4-29.5h0Z"/>
  <g id="sygnet">
    <path class="st4" d="M368.5,274.8h-25.8v-28.5c5.7,2.1,10.7,5.4,14.9,9.6,3.2,3.2,5.9,7,8,11.1,1.2,2.5,2.2,5,2.9,7.8Z"/>
    <path class="st4" d="M390,274.8h-10.7c-.1-.7-.3-1.4-.5-2.1-.9-3.5-2.1-6.8-3.6-10-2.6-5.3-6-10.1-10.2-14.3-6.1-6.1-13.8-10.8-22.3-13.3v-10.9c11.5,2.8,21.7,8.6,29.8,16.7,4.7,4.7,8.7,10.2,11.7,16.3.6,1.2,1.1,2.3,1.6,3.5.9,2.1,1.7,4.3,2.4,6.5h0c.7,2.4,1.3,5,1.8,7.5h0Z"/>
    <path class="st4" d="M411.3,274.8h-10.6c-.8-5.1-2-10-3.8-14.7-1.8-4.8-4-9.3-6.7-13.6-2.9-4.7-6.4-9-10.3-12.9-10-10-22.8-17.1-37.2-20.1v-10.7c17.3,3.1,32.8,11.4,44.7,23.3,2.8,2.8,5.4,5.8,7.8,9,2.5,3.3,4.7,6.8,6.7,10.5,2.4,4.5,4.5,9.2,6.1,14.1,1.6,4.8,2.7,9.9,3.4,15.1h-.1Z"/>
    <path class="st4" d="M432.4,274.6c-2.1,0-4.2.1-6.5.2h-4.1c-.6-5.1-1.6-10.1-2.9-14.9-1.4-5-3.2-9.8-5.4-14.4-.2-.5-.5-1-.7-1.5-1.6-3.3-3.4-6.4-5.3-9.4-.2-.2-.3-.5-.5-.7-1.9-2.9-4-5.8-6.3-8.5-1.9-2.3-3.9-4.4-5.9-6.5-13.8-13.8-31.9-23.4-52.1-26.6v-10.6c23.1,3.3,43.8,14,59.5,29.8,1.6,1.6,3.2,3.3,4.7,5.1,2,2.3,3.9,4.6,5.7,7.1.3.5.7,1,1,1.5,2,2.8,3.9,5.7,5.6,8.8.2.3.3.6.5.9,2,3.6,3.8,7.4,5.4,11.3,1.9,4.7,3.5,9.5,4.7,14.5,1.1,4.6,2,9.4,2.5,14.2v-.3Z"/>
    <path class="st4" d="M463.6,193.5c4.2.5,7.8,1.1,11,1.9-16.6,4.3-31.3,13-43.1,24.7-.4.4-.8.8-1.2,1.2-1.3,1.4-2.6,2.8-3.8,4.2-.7-1.1-1.4-2.2-2.1-3.3-1.3-2-2.6-3.9-4-5.7,1.2-1.3,2.4-2.6,3.6-3.8,0,0,.1-.1.2-.2,1.4-1.4,2.9-2.8,4.3-4.1,17.6-15.7,40.6-25.5,65.8-26.4-3.1,5.2-11.1,9.9-30.9,11.6h.2Z"/>
    <path class="st4" d="M446.5,235c-3.6,3.6-6.8,7.6-9.6,11.9-1.4-3.9-3-7.7-4.8-11.4,2.2-2.8,4.5-5.4,7-7.9,13.6-13.6,31.7-22.5,52-24.3,3.5,3.3,4.9,6.9,5.2,10.2-19.4.6-36.9,8.7-49.7,21.5h-.1Z"/>
    <path class="st4" d="M496.3,224v10.5c-13.6.6-25.9,6.3-34.9,15.3-6.5,6.5-11.3,14.7-13.7,23.9-1.5.1-3.1.2-4.7.3-.4-4.3-1.1-8.6-2-12.8,3.2-7.1,7.6-13.5,13-18.9,10.9-10.9,25.8-17.8,42.4-18.4h0Z"/>
    <path class="st4" d="M496.3,245.1v.3c0,3-.4,5.7-1.2,8.1-.3.8-.6,1.6-.9,2.3-1.4,3-3.6,5.6-6.6,7.8h0c-2.3,1.7-5,3.1-8.2,4.4-2.3.9-4.9,1.7-7.7,2.4-3.8.9-8,1.7-12.8,2.3,1.8-5,4.5-9.5,7.9-13.4h0c.6-.7,1.2-1.3,1.8-2,2.4-2.4,5-4.4,7.9-6.2h0c5.8-3.5,12.5-5.7,19.6-6.1h.2Z"/>
    <path class="st4" d="M420.4,188.2v5.4c0,.5,0,1.1-.1,1.6v.3c0,.5,0,.9-.1,1.4v.5c0,.5-.1,1-.2,1.5,0,.6-.1,1.2-.2,1.7,0,.5-.1,1-.2,1.5v.9c-1.9,1.7-3.7,3.5-5.4,5.3-1.9-2.1-3.9-4.2-6-6.2-17.4-16.7-40-27.9-65.2-31.2v-66.7h0c.6,0,1.2,0,1.7.2h.4c.6,0,1.1,0,1.7.2.5,0,1,0,1.5.2h.7c.5,0,.9,0,1.4.2.7,0,1.4.2,2.1.4.5,0,.9.2,1.4.3.2,0,.4,0,.6,0h.3c.4,0,.7.2,1.1.2s.4,0,.6.2c.5,0,.9.2,1.4.3.6,0,1.1.3,1.7.5.2,0,.5,0,.7.2h0c.4,0,.8.2,1.3.4h0c.5,0,1,.3,1.4.5h0c.4,0,.9.3,1.3.5.3,0,.6.2,1,.3.3,0,.6.2,1,.4.5.2,1,.4,1.4.6.5.2.9.4,1.4.6s1.1.5,1.6.7h0c.2,0,.4.2.6.3h.1c.4.2.7.3,1.1.5,0,0,.2,0,.2,0h.1c.5.3,1.1.5,1.6.8.1,0,.2,0,.4.2.5.3,1.1.6,1.6.9.3,0,.5.3.8.4.3.2.6.4,1,.6.6.3,1.2.7,1.7,1,0,0,.2,0,.2.2.4.2.8.5,1.1.7.2,0,.4.3.6.4h0c.5.3.9.6,1.4.9s1,.7,1.5,1c.2,0,.3.2.5.3.4.3.8.6,1.2.9.1,0,.3.2.4.3.4.3.8.6,1.2.9.1,0,.2.2.4.3.4.3.9.7,1.3,1,0,0,.2,0,.3.2.4.3.7.6,1.1.9.2,0,.3.3.5.4h0c.2.2.5.4.7.7,0,0,.2.2.3.3.3.3.7.6,1,.9s.6.5.9.8c.4.4.9.8,1.3,1.3.5.5,1,1,1.4,1.5.5.5.9,1,1.4,1.5h0c.4.5.8.9,1.1,1.4,0,0,.2.2.2.3.4.4.7.9,1.1,1.3.4.5.9,1.1,1.3,1.6.1.1.2.3.3.4.3.4.6.7.9,1.1h0c.3.3.5.7.7,1h0c.2.3.4.5.5.8h0c.4.6.7,1.1,1.1,1.7.4.5.7,1.1,1.1,1.6.4.6.7,1.1,1,1.7h0c.3.5.6,1,.9,1.6,0,0,.1.2.2.3.3.5.6,1,.9,1.6s.6,1.2.9,1.7h0c.3.6.6,1.1.8,1.7h0c.2.6.5,1.1.7,1.6.3.7.6,1.4.9,2.1.2.5.4,1,.6,1.5,0,.2.1.4.2.5h0c.2.4.3.9.5,1.3v.2c0,.1,0,.2.1.3.2.6.4,1.1.6,1.7v.2c.2.6.4,1.2.6,1.8h0c.2.5.3,1,.5,1.6,0,.2.1.4.2.6h0c.2.6.3,1.1.4,1.7h0c.2.7.3,1.4.5,2,.1.6.3,1.2.4,1.8,0,.5.2,1,.3,1.4.1.6.2,1.3.3,1.9,0,.4.1.9.2,1.3,0,.5.1.9.2,1.4.1.9.2,1.9.3,2.9v1c0,.6.1,1.3.1,1.9v5.4l1.2.9Z"/>
    <path class="st4" d="M496.3,57.3v17.4c-26,0-49.5,10.7-66.6,27.7-7.9,7.9-14.3,17.1-19,27.3-.3-.4-.6-.7-.9-1.1-.3-.4-.6-.7-.9-1.1-.3-.3-.6-.7-.9-1-.6-.7-1.1-1.3-1.7-2-.2-.2-.4-.5-.6-.7-.8-.9-1.7-1.8-2.5-2.6l-1.5-1.5c-.3-.3-.6-.6-1-.9l-.2-.2c-.2-.2-.4-.4-.6-.6-.6-.5-1.1-1-1.7-1.5-.4-.3-.8-.7-1.2-1-.5-.4-1-.8-1.5-1.2-.7-.5-1.3-1-2-1.5-.4-.3-.7-.6-1.1-.8-.2,0-.3-.3-.5-.4-.6-.4-1.2-.9-1.9-1.3-.4-.3-.9-.6-1.4-.9-.2,0-.4-.2-.5-.4-.4-.3-.8-.5-1.2-.8-.5-.3-1.1-.7-1.7-1-.3-.2-.6-.4-.9-.5-1.3-.8-2.7-1.6-4.1-2.3-.3-.2-.7-.3-1-.5-.5-.2-.9-.5-1.4-.7-.6-.3-1.2-.6-1.7-.8-.3-.2-.7-.3-1-.5s-.7-.3-1-.5c-.4-.2-.8-.3-1.2-.5-.6-.3-1.3-.5-2-.8-2.6-1-5.3-2-8-2.8-.3,0-.7-.2-1-.3-1.4-.4-2.8-.7-4.2-1.1-.3,0-.5,0-.8-.2-.5,0-.9-.2-1.4-.3-.3,0-.7,0-1-.2-.3,0-.6,0-1-.2-1.5-.3-3-.5-4.6-.7-.3,0-.6,0-.9,0-.4,0-.7,0-1.1,0-1.1,0-2.2-.2-3.3-.3h-1.1V28.8h71.1c52.3,0,82.5,4.9,82.5,28.5h.2Z"/>
    <path class="st4" d="M496.3,85.2v86.2c-24.5.5-47.1,8.5-65.6,21.9v-12.2c-.2-2.9-.5-5.7-1-8.5,0-.3-.1-.7-.2-1-.1-.8-.3-1.6-.5-2.5,0-.4-.2-.8-.2-1.2s-.1-.6-.2-.9c-.5-2.4-1.2-4.7-1.9-7,0-.2-.1-.5-.2-.7-.2-.5-.3-1.1-.5-1.6-.1-.3-.2-.7-.3-1,0-.2-.1-.3-.2-.5,0-.3-.2-.5-.3-.8-.2-.4-.3-.9-.5-1.3-.4-.9-.7-1.8-1.1-2.8-.1-.3-.3-.6-.4-.9v-.2c-.1-.3-.3-.6-.4-1-.4-.9-.8-1.8-1.2-2.6-.2-.4-.4-.7-.5-1.1-.2-.5-.5-.9-.7-1.4h0c-.5-.9-.9-1.8-1.4-2.6-.2-.4-.5-.9-.7-1.3h0c4.2-11.5,10.9-21.7,19.4-30.2,15.1-15.1,36-24.5,59.1-24.6l-.5-.2Z"/>
    <path class="st2" d="M442.6,175.6c-1.4,0-2.8,0-4.3.3l14.7-18.8-17.6,17c-.5-19.3,10.3-30.8,33.3-27.7-.8,3.9-1.3,7.9-2.4,11.7-3.1,11-12.2,17.6-23.7,17.5Z"/>
    <path class="st1" d="M410.5,109.6c-.7,1.2-1.4,2.5-1.9,3.8l-9-22.1,6,23.7c-17-9.1-21.6-24.2-7.5-42.7,3,2.6,6.2,5.1,8.9,7.9,8,8.1,9.3,19.4,3.4,29.3h.1Z"/>
    <path class="st1" d="M453.6,78.6c-1.4.4-2.7.9-4,1.6l8.3-22.4-11.6,21.6c-6.4-18.2.4-32.5,23.2-36.6.4,4,1.1,7.9,1.3,11.9.4,11.4-6.2,20.5-17.2,23.9h0Z"/>
    <path class="st1" d="M385,126.9c.8,1,1.7,1.9,2.7,2.7l-21.2,1.3,21.7,1.6c-12.5,11.7-26.5,11.4-38.1-5.7,3.1-1.8,6-3.8,9.2-5.3,9.1-4.4,18.9-2.3,25.7,5.4h0Z"/>
    <path class="st2" d="M378.8,90.9c0,.9-.1,1.7,0,2.6l-10.8-9.8,9.6,11.5c-11.8-.6-18.3-7.7-15.4-21.6,2.4.7,4.7,1.2,7,2,6.6,2.4,10.2,8.2,9.6,15.3h0Z"/>
    <path class="st2" d="M432.2,93.6c-.6.6-1.2,1.3-1.7,2l-2-14.5v15c-8.7-8-9.2-17.6,2-26.5,1.4,2,2.9,3.9,4.1,6,3.5,6,2.6,12.9-2.4,17.9h0Z"/>
    <path class="st2" d="M445.4,115.8c-.8-.7-1.6-1.4-2.5-1.9l17.5-3.3-18.3.9c9.2-11.1,20.9-12.3,32.4.8-2.4,1.8-4.6,3.8-7.1,5.4-7.1,4.7-15.5,3.9-22-1.8h0Z"/>
    <path class="st1" d="M428.3,142.8c-.9-.3-1.8-.6-2.7-.8l13.6-8.3-15,6.5c4.2-12.2,13.6-16.8,27.3-9.5-1.4,2.3-2.7,4.6-4.2,6.7-4.5,6.2-11.8,8.2-18.9,5.4h0Z"/>
    <path class="st1" d="M412.1,175.5c.5.8,1.1,1.5,1.8,2.2l-15.9-.9,16,3.1c-10.3,7.7-20.8,6.1-27.9-7.6,2.4-1.1,4.8-2.3,7.3-3.2,7.2-2.5,14.3,0,18.7,6.3h0Z"/>
    <path class="st2" d="M404.8,150.1c.5.6,1,1.2,1.6,1.7l-13.2.4,13.5,1.4c-8,7.1-16.7,6.6-23.6-4.3,1.9-1.1,3.8-2.2,5.8-3.1,5.8-2.6,11.8-1.1,15.9,3.9h0Z"/>
  </g>
  <g id="tagline_x5F_mateusz_bernacki">
    <path class="st0" d="M240.8,534.3v24h-2.4v-19.2l-9.4,16.2h-1.2l-9.4-16.1v19.1h-2.4v-24h2.1l10.4,17.8,10.3-17.8h2.1-.1Z"/>
    <path class="st0" d="M267.1,551.9h-13.4l-2.9,6.4h-2.6l11-24h2.5l11,24h-2.7l-2.9-6.4ZM266.2,549.8l-5.8-12.9-5.8,12.9h11.6Z"/>
    <path class="st0" d="M283.6,536.4h-8.4v-2.2h19.4v2.2h-8.4v21.8h-2.5v-21.8h-.1Z"/>
    <path class="st0" d="M319,556.1v2.2h-17v-24h16.5v2.2h-13.9v8.5h12.4v2.2h-12.4v8.9h14.4Z"/>
    <path class="st0" d="M330.8,555.8c-1.7-1.8-2.6-4.4-2.6-7.8v-13.8h2.5v13.7c0,2.8.6,4.9,1.9,6.2,1.3,1.4,3.1,2.1,5.5,2.1s4.2-.7,5.5-2.1c1.3-1.4,1.9-3.5,1.9-6.2v-13.7h2.5v13.8c0,3.4-.9,6-2.6,7.8s-4.1,2.7-7.3,2.7-5.5-.9-7.3-2.7Z"/>
    <path class="st0" d="M360.5,557.6c-1.6-.6-2.9-1.3-3.8-2.3l1-2c.9.9,2,1.6,3.5,2.1,1.4.5,2.9.8,4.5.8s3.8-.4,4.8-1.2c1.1-.8,1.6-1.8,1.6-3.1s-.3-1.7-.9-2.3-1.3-1-2.1-1.3-2-.6-3.5-1c-1.8-.5-3.2-.9-4.3-1.3-1.1-.4-2-1.1-2.8-1.9-.8-.9-1.1-2-1.1-3.5s.3-2.3,1-3.3c.6-1,1.6-1.8,3-2.4,1.3-.6,3-.9,4.9-.9s2.7.2,4,.6c1.3.4,2.5.9,3.4,1.6l-.9,2c-1-.7-2.1-1.2-3.2-1.5s-2.3-.5-3.4-.5c-2.1,0-3.7.4-4.8,1.2s-1.6,1.9-1.6,3.1.3,1.7.9,2.3,1.3,1,2.2,1.3,2.1.6,3.6,1c1.8.4,3.2.9,4.3,1.3,1.1.4,2,1.1,2.8,1.9s1.1,2,1.1,3.5-.3,2.3-1,3.3-1.7,1.8-3,2.4c-1.4.6-3,.9-5,.9s-3.5-.3-5.1-.9h-.1Z"/>
    <path class="st0" d="M400.9,556.1v2.2h-19.7v-1.7l15.9-20.1h-15.7v-2.2h19v1.7l-15.9,20.1h16.4Z"/>
    <path class="st0" d="M440.5,547.9c.9,1,1.3,2.3,1.3,3.9s-.8,3.6-2.3,4.8c-1.5,1.1-3.8,1.7-6.7,1.7h-11v-24h10.4c2.7,0,4.8.5,6.2,1.6,1.5,1.1,2.2,2.6,2.2,4.6s-.3,2.5-1,3.4-1.5,1.6-2.7,2.1c1.6.3,2.8,1,3.7,2h-.1ZM424.3,536.3v8.7h7.7c1.9,0,3.4-.4,4.5-1.1,1.1-.7,1.6-1.8,1.6-3.2s-.5-2.5-1.6-3.2-2.6-1.1-4.5-1.1h-7.7ZM437.6,555.1c1.1-.7,1.6-1.9,1.6-3.4,0-3-2.2-4.5-6.5-4.5h-8.5v9h8.5c2.1,0,3.8-.4,4.9-1.1Z"/>
    <path class="st0" d="M468,556.1v2.2h-17v-24h16.5v2.2h-13.9v8.5h12.4v2.2h-12.4v8.9h14.4Z"/>
    <path class="st0" d="M493.8,558.3l-5.5-7.7c-.6,0-1.3,0-1.9,0h-6.5v7.6h-2.5v-24h9c3.1,0,5.5.7,7.2,2.2s2.6,3.5,2.6,6-.5,3.5-1.4,4.8-2.3,2.2-4.1,2.8l5.9,8.2h-2.8ZM491.8,546.9c1.3-1.1,1.9-2.5,1.9-4.4s-.6-3.4-1.9-4.5c-1.3-1-3.1-1.6-5.5-1.6h-6.4v12h6.4c2.4,0,4.2-.5,5.5-1.6h0Z"/>
    <path class="st0" d="M525.7,534.3v24h-2.1l-15.4-19.5v19.5h-2.5v-24h2.1l15.5,19.5v-19.5h2.5-.1Z"/>
    <path class="st0" d="M552.1,551.9h-13.4l-2.9,6.4h-2.6l11-24h2.5l11,24h-2.7l-2.9-6.4h0ZM551.1,549.8l-5.8-12.9-5.8,12.9h11.6Z"/>
    <path class="st0" d="M568.7,556.9c-1.9-1.1-3.4-2.5-4.5-4.4s-1.6-4-1.6-6.3.5-4.4,1.6-6.3c1.1-1.9,2.6-3.3,4.5-4.4s4.1-1.6,6.5-1.6,3.4.3,4.9.9c1.5.6,2.8,1.5,3.8,2.6l-1.6,1.6c-1.9-1.9-4.2-2.8-7.1-2.8s-3.6.4-5.2,1.3c-1.6.9-2.8,2.1-3.7,3.6s-1.3,3.2-1.3,5.1.4,3.6,1.3,5.1c.9,1.5,2.1,2.7,3.7,3.6s3.3,1.3,5.2,1.3c2.9,0,5.2-1,7.1-2.9l1.6,1.6c-1.1,1.1-2.3,2-3.9,2.6-1.5.6-3.2.9-5,.9s-4.5-.5-6.4-1.6h.1Z"/>
    <path class="st0" d="M600.2,547l-4.9,5v6.3h-2.5v-24h2.5v14.5l14.1-14.5h2.9l-10.4,10.9,11.1,13.1h-3l-9.8-11.3h0Z"/>
    <path class="st0" d="M620.6,534.3h2.5v24h-2.5v-24Z"/>
  </g>
  <g id="logo_x5F_usugi_ogrodnicze">
    <path class="st4" d="M54.8,472.3c-8.7,0-15.5-3.2-15.5-15.4v-119.7h11.5v123.2c0,1,.3,4.5,4,4.5s4.3-2.7,4.3-4.5v-123.2h11.5v119.7c0,11.7-7.7,15.4-15.9,15.4h.1Z"/>
    <path class="st4" d="M105.6,472.3c-8.7,0-15.5-3.2-15.5-15.4v-16.4h11.5v19.1c0,3.3,1.3,5.4,4.2,5.4s4.2-2.3,4.2-5.4v-19.1c0-1.5,0-3-.5-4.5-.7-1.8-2.2-3-4.2-3.8l-8.7-4c-4.5-2-6.5-6.5-6.5-10.9v-65.2c0-12.2,6.9-15.4,15.5-15.4s15.9,3.8,15.9,15.2v61.4h-11.5v-64.5c0-1.5-.7-4.7-4.2-4.7s-4.2,3-4.2,4.5v65.5c0,4.5,1.8,6,6,7.9l6.7,2.8c4.3,1.8,7.2,6.4,7.2,11v20.9c0,11.7-7.9,15.5-15.9,15.5h0Z"/>
    <path class="st4" d="M141.2,434.5l-3.7,1v-8.5l3.7-1v-88.8h11.5v85.8l6.9-1.8v8.5l-6.9,1.8v31.9h8.5v7.9h-20.1v-36.8h.1Z"/>
    <path class="st4" d="M194,472.3c-8.7,0-15.5-3.2-15.5-15.4v-119.7h11.5v123.2c0,1,.3,4.5,4,4.5s4.3-2.7,4.3-4.5v-123.2h11.5v119.7c0,11.7-7.7,15.4-15.9,15.4h0Z"/>
    <path class="st4" d="M246,472.3c-8.7,0-15.5-3-15.5-15.2v-105c0-12.2,6.9-15.4,15.5-15.4s15.9,3.7,15.9,15.2v53.8l-11.5-.2v-57c0-1.5-.7-4.5-4.2-4.5s-4.2,3-4.2,4.5v111.9c0,1,.3,4.5,4,4.5s4.3-2.7,4.3-4.5v-27.3h-3.7v-8.2h15.2v31.9c0,11.7-7.7,15.4-15.9,15.4h0Z"/>
    <path class="st4" d="M281.8,337.2h11.4v134.1h-11.4v-134.1Z"/>
    <path class="st4" d="M357,472.3c-8.7,0-15.5-3.2-15.5-15.4v-104.8c0-12.2,6.9-15.4,15.5-15.4s15.9,3.8,15.9,15.2v105c0,11.7-7.7,15.4-15.9,15.4ZM357.2,344c-3.5,0-4.2,3-4.2,4.5v111.9c0,1,.3,4.5,4,4.5s4.3-2.7,4.3-4.5v-111.9c0-1.5-.7-4.5-4.2-4.5h.1Z"/>
    <path class="st4" d="M409,472.3c-8.7,0-15.5-3-15.5-15.2v-105c0-12.2,6.9-15.4,15.5-15.4s15.9,3.7,15.9,15.2v53.8l-11.5-.2v-57c0-1.5-.7-4.5-4.2-4.5s-4.2,3-4.2,4.5v111.9c0,1,.3,4.5,4,4.5s4.3-2.7,4.3-4.5v-27.3h-3.7v-8.2h15.2v31.9c0,11.7-7.7,15.4-15.9,15.4h.1Z"/>
    <path class="st4" d="M464.5,438.5c0-1.8-.8-5.4-4.5-5.4h-3.8v38.1h-11.5v-134.1h16.4c10.5,0,15,4.8,15,17.6v62c0,4.2-.8,8.9-6.7,10.2,5.5,1.7,6.7,7.4,6.7,11.7v32.6h-11.5v-32.8h-.1ZM460,345.4h-3.8v79.8h4.3c3,0,4-2.8,4-4.5v-69.9c0-1.8-.7-5.4-4.5-5.4h0Z"/>
    <path class="st4" d="M512,472.3c-8.7,0-15.5-3.2-15.5-15.4v-104.8c0-12.2,6.9-15.4,15.5-15.4s15.9,3.8,15.9,15.2v105c0,11.7-7.7,15.4-15.9,15.4ZM512.2,344c-3.5,0-4.2,3-4.2,4.5v111.9c0,1,.3,4.5,4,4.5s4.3-2.7,4.3-4.5v-111.9c0-1.5-.7-4.5-4.2-4.5h.1Z"/>
    <path class="st4" d="M563,471.3h-14.5v-134.1h14.5c10.7,0,16.9,3.7,16.9,14.5v104c0,12.4-5.7,15.5-16.9,15.5h0ZM563.3,344.5h-3.3v118.9h3.3c3,0,5-2.2,5-5v-108.8c0-2.7-1.7-5-5-5h0Z"/>
    <path class="st4" d="M611.8,341.7s1.7-5.2,9.9-5.2,10.2,4,10.2,12.7v123.1h-11.5v-121.9c0-2.7-.3-5.2-4.2-5.2s-4.2,2.5-4.2,5.2v121.9h-11.5v-135.1h11.5l-.2,4.5Z"/>
    <path class="st4" d="M652.6,337.2h11.4v134.1h-11.4v-134.1Z"/>
    <path class="st4" d="M700.1,472.3c-8.7,0-15.5-3-15.5-15.2v-105c0-12.2,6.9-15.4,15.5-15.4s15.9,3.7,15.9,15.2v61.4h-11.5v-64.7c0-1.5-.7-4.5-4.2-4.5s-4.2,3-4.2,4.5v111.9c0,1,.3,4.5,4,4.5s4.3-2.7,4.3-4.5v-27.3h11.5v23.7c0,11.7-7.7,15.4-15.9,15.4h.1Z"/>
    <path class="st4" d="M778.8,337.2h21.7v8.2h-10.2v79.8h10.2v8h-10.2v30.3h10.2v8.2h-21.7v-134.4h0Z"/>
    <polygon class="st4" points="759.3 337.3 733.8 337.3 733.8 345.4 747.5 345.4 733.8 463.4 733.8 471.3 759.3 471.3 759.3 463.4 745.4 463.4 759.3 345.4 759.3 337.3"/>
  </g>
</svg>