<?xml version="1.0" encoding="UTF-8"?><svg id="logo_usługi_ogrodnicze_mateusz_bernacki" xmlns="http://www.w3.org/2000/svg" viewBox="0 0 1077.17 302.74"><defs><style>.cls-1{fill:#fff;}</style></defs><g id="sygnet"><path class="cls-1" d="M54.15,274.4h-25.8v-28.5c5.65,2.13,10.72,5.43,14.9,9.63,3.23,3.23,5.94,6.98,7.99,11.12,1.21,2.46,2.2,5.05,2.91,7.75Z"/><path class="cls-1" d="M75.67,274.4h-10.71c-.14-.7-.31-1.38-.48-2.07-.88-3.47-2.1-6.81-3.63-9.97-2.58-5.32-6.03-10.14-10.16-14.28-6.14-6.14-13.79-10.77-22.35-13.28v-10.88c11.47,2.76,21.72,8.65,29.79,16.71,4.73,4.73,8.72,10.21,11.75,16.25.59,1.15,1.14,2.33,1.65,3.52.9,2.1,1.69,4.26,2.36,6.48h0c.75,2.45,1.34,4.95,1.78,7.51Z"/><path class="cls-1" d="M96.95,274.4h-10.62c-.75-5.11-2.03-10.04-3.77-14.75-1.77-4.78-4.02-9.33-6.71-13.57-2.94-4.67-6.39-8.99-10.27-12.88-9.98-9.99-22.84-17.12-37.22-20.06v-10.71c17.3,3.08,32.76,11.43,44.66,23.34,2.8,2.8,5.4,5.8,7.79,8.97,2.49,3.31,4.74,6.82,6.72,10.49,2.43,4.47,4.47,9.2,6.05,14.12,1.57,4.84,2.71,9.88,3.38,15.06Z"/><path class="cls-1" d="M118.1,274.15c-2.09.06-4.24.11-6.46.16-1.35.02-2.72.04-4.11.06-.59-5.11-1.58-10.09-2.94-14.92-1.4-5-3.22-9.83-5.4-14.45-.24-.52-.49-1.03-.74-1.53-1.6-3.26-3.38-6.4-5.33-9.43-.16-.24-.31-.47-.47-.71-1.93-2.94-4.02-5.78-6.27-8.48-1.87-2.26-3.86-4.44-5.94-6.53-13.82-13.82-31.9-23.38-52.1-26.55v-10.64c23.12,3.26,43.81,14.02,59.55,29.75,1.63,1.63,3.21,3.32,4.73,5.06,2,2.28,3.89,4.64,5.7,7.09.35.48.7.97,1.05,1.45,2,2.82,3.87,5.75,5.58,8.76.17.29.34.59.5.89,2.03,3.63,3.84,7.4,5.43,11.28,1.92,4.68,3.51,9.53,4.73,14.52,1.15,4.63,1.98,9.38,2.5,14.22Z"/><path class="cls-1" d="M149.3,193.1c4.17.47,7.84,1.12,11.05,1.92-16.55,4.3-31.32,12.96-43.05,24.67-.39.39-.77.78-1.16,1.18-1.31,1.35-2.58,2.75-3.81,4.19-.67-1.1-1.36-2.18-2.06-3.26-1.29-1.96-2.63-3.87-4.02-5.75,1.17-1.3,2.38-2.57,3.62-3.81.07-.07.14-.14.21-.21,1.4-1.4,2.85-2.76,4.34-4.07,17.64-15.66,40.59-25.48,65.83-26.43-3.08,5.24-11.14,9.88-30.94,11.57Z"/><path class="cls-1" d="M132.18,234.56c-3.61,3.61-6.85,7.6-9.64,11.9-1.39-3.91-2.98-7.72-4.77-11.42,2.16-2.78,4.49-5.42,6.98-7.91,13.56-13.56,31.73-22.5,51.97-24.3,3.51,3.28,4.9,6.9,5.22,10.22-19.42.59-36.94,8.7-49.75,21.51Z"/><path class="cls-1" d="M181.99,223.58v10.52c-13.64.57-25.92,6.33-34.94,15.35-6.51,6.51-11.33,14.74-13.71,23.94-1.53.11-3.11.22-4.72.31-.43-4.35-1.1-8.63-2-12.82,3.16-7.07,7.59-13.46,13-18.87,10.92-10.91,25.83-17.84,42.37-18.42Z"/><path class="cls-1" d="M181.99,244.63v.32c0,2.98-.39,5.69-1.19,8.13-.26.8-.56,1.56-.91,2.3-1.42,3.03-3.58,5.61-6.56,7.81h0c-2.25,1.67-4.97,3.11-8.17,4.35-2.3.89-4.86,1.68-7.68,2.38-3.77.94-8.02,1.7-12.78,2.32,1.81-4.97,4.52-9.5,7.94-13.39h0c.59-.67,1.21-1.34,1.85-1.97,2.36-2.36,4.99-4.44,7.85-6.19h0c5.77-3.52,12.46-5.7,19.63-6.07Z"/><path class="cls-1" d="M99.45,28.35H28.35v64.95c.37.02.74.05,1.1.08,1.1.09,2.2.19,3.29.32.36.04.72.08,1.09.13.31.04.62.07.92.12,1.53.21,3.06.45,4.57.73.32.06.64.12.97.19.34.06.67.13,1.02.21.46.09.92.19,1.38.29.26.06.51.12.77.18,1.4.32,2.79.68,4.16,1.07.34.09.69.19,1.03.29,2.74.8,5.42,1.73,8.05,2.76.66.26,1.31.52,1.96.8.41.17.8.34,1.2.52.34.15.68.3,1.02.46.34.15.69.31,1.03.47.59.27,1.17.55,1.75.83.46.22.91.46,1.37.69.33.17.66.34.99.51,1.38.73,2.75,1.49,4.09,2.3.31.17.61.36.91.54.56.33,1.1.67,1.65,1.02.42.26.83.53,1.24.8.18.12.36.24.54.36.46.3.9.61,1.35.92.62.43,1.24.87,1.85,1.32.17.12.34.24.51.37.38.27.75.56,1.13.85.66.51,1.32,1.02,1.97,1.54.49.39.97.79,1.45,1.2.39.32.78.65,1.16.99.57.5,1.14,1,1.7,1.51.21.18.41.37.61.56.07.07.15.14.22.21.32.3.64.61.96.91.51.47,1,.96,1.49,1.45.85.85,1.68,1.72,2.5,2.6.21.22.42.46.63.69.59.64,1.17,1.3,1.73,1.96.3.34.59.69.88,1.04.31.36.61.73.9,1.1.3.37.59.74.89,1.11,4.7-10.21,11.18-19.44,19.03-27.29,17.05-17.04,40.56-27.61,66.57-27.71v-17.41c0-23.62-30.24-28.53-82.55-28.53ZM64.45,90.49c-.08.87-.1,1.74-.02,2.62l-10.8-9.82,9.59,11.52c-11.79-.55-18.33-7.68-15.42-21.59,2.35.66,4.75,1.17,7.03,2,6.58,2.38,10.22,8.25,9.62,15.28ZM96.17,109.15c-.73,1.23-1.38,2.49-1.88,3.85l-8.99-22.08,6.02,23.73c-16.98-9.12-21.6-24.22-7.52-42.68,3,2.63,6.17,5.07,8.95,7.89,8.01,8.14,9.25,19.36,3.41,29.29ZM117.84,93.17c-.62.62-1.19,1.27-1.69,2l-2-14.46v14.99c-8.71-7.97-9.17-17.63,1.97-26.46,1.38,2.01,2.9,3.94,4.12,6.03,3.53,6.04,2.57,12.88-2.39,17.89ZM139.31,78.18c-1.37.42-2.7.91-3.98,1.57l8.26-22.36-11.56,21.58c-6.38-18.19.4-32.46,23.25-36.57.44,3.96,1.13,7.9,1.28,11.86.42,11.42-6.23,20.53-17.24,23.92Z"/><path class="cls-1" d="M122.87,109.43c-8.48,8.48-15.15,18.75-19.4,30.21,0,0,.01.02.02.03.26.43.51.86.75,1.3.5.87.98,1.75,1.45,2.63.01.02.02.04.03.06.24.46.47.91.7,1.37.19.36.37.73.54,1.09.43.87.84,1.75,1.24,2.64.15.32.29.64.43.97.04.07.06.14.09.21.14.31.27.62.41.94.39.91.75,1.83,1.11,2.75.17.44.34.89.51,1.34.1.27.2.54.29.8.06.17.12.33.17.5.12.32.23.64.34.97.19.54.36,1.08.54,1.62.08.24.16.48.22.72.72,2.3,1.35,4.65,1.89,7.02.07.29.14.6.2.9.09.38.17.77.24,1.15.17.81.32,1.63.47,2.46.06.34.12.69.17,1.03.47,2.81.8,5.65,1.02,8.53.03.32.05.66.07.99.03.51.06,1.02.08,1.53.02.4.04.8.06,1.2.04,1.11.06,2.23.06,3.35,0,.82-.01,1.63-.03,2.45,0,.41-.02.81-.04,1.22-.02.49-.04.97-.07,1.46,18.48-13.39,41.09-21.44,65.57-21.9v-86.17c-23.1.11-43.99,9.5-59.12,24.64ZM113.98,142.38c-.89-.35-1.79-.64-2.74-.82l13.58-8.29-14.99,6.52c4.19-12.17,13.64-16.84,27.32-9.54-1.41,2.26-2.68,4.61-4.24,6.74-4.5,6.15-11.76,8.18-18.93,5.39ZM152.03,157.66c-3.09,11-12.22,17.64-23.74,17.49-1.43-.02-2.84.04-4.27.28l14.71-18.76-17.61,17c-.51-19.27,10.32-30.78,33.33-27.7-.79,3.91-1.34,7.87-2.41,11.68ZM153.01,117.22c-7.15,4.68-15.55,3.93-21.97-1.81-.8-.71-1.62-1.38-2.55-1.94l17.51-3.34-18.28.92c9.18-11.11,20.94-12.27,32.39.77-2.37,1.81-4.62,3.78-7.1,5.4Z"/><path class="cls-1" d="M106.04,186.52c-.01-.68-.03-1.37-.06-2.04-.01-.4-.03-.8-.06-1.2-.02-.32-.03-.64-.06-.97-.04-.64-.09-1.29-.14-1.93-.03-.32-.06-.64-.09-.95-.09-.95-.2-1.91-.33-2.86-.06-.46-.12-.92-.19-1.39-.07-.45-.14-.9-.21-1.35-.11-.65-.22-1.29-.34-1.93-.09-.48-.19-.96-.29-1.44-.12-.6-.26-1.2-.39-1.79-.14-.63-.3-1.26-.46-1.89-.01-.04-.02-.09-.04-.14-.14-.56-.29-1.11-.45-1.67,0-.02-.01-.04-.02-.07-.06-.21-.12-.42-.18-.64-.15-.53-.31-1.05-.47-1.58,0-.02-.01-.04-.02-.06-.19-.59-.38-1.19-.57-1.77-.02-.07-.04-.13-.07-.2-.19-.57-.39-1.13-.59-1.69-.04-.12-.09-.23-.13-.35-.02-.06-.04-.12-.06-.17-.17-.45-.34-.89-.51-1.34-.01-.03-.02-.06-.04-.09-.06-.18-.14-.36-.21-.54-.2-.51-.41-1.02-.62-1.52-.31-.72-.62-1.43-.94-2.14-.22-.49-.45-.97-.68-1.45-.02-.05-.04-.09-.06-.14-.28-.57-.56-1.14-.84-1.7,0-.01-.01-.02-.02-.03-.3-.59-.61-1.17-.92-1.75-.28-.52-.57-1.04-.85-1.55-.06-.1-.11-.2-.17-.3-.3-.53-.61-1.05-.92-1.57h0c-.34-.57-.69-1.12-1.04-1.68-.35-.56-.71-1.1-1.07-1.65-.36-.53-.72-1.06-1.08-1.58,0,0-.01,0-.01-.01-.02-.04-.05-.08-.08-.12,0-.01-.01-.02-.02-.03-.02-.03-.04-.06-.06-.09-.17-.26-.36-.51-.55-.77,0,0-.01-.02-.02-.02-.24-.34-.48-.67-.74-1.01-.01-.01-.02-.03-.03-.04-.28-.37-.57-.75-.85-1.12-.11-.15-.23-.29-.34-.44-.42-.54-.85-1.08-1.3-1.61-.36-.44-.72-.88-1.1-1.32-.08-.09-.16-.19-.24-.27-.37-.43-.75-.85-1.14-1.27-.03-.04-.07-.08-.1-.12-.46-.5-.91-.99-1.38-1.48-.47-.5-.95-.99-1.44-1.48-.43-.43-.87-.86-1.31-1.28-.28-.27-.57-.54-.85-.8-.33-.32-.67-.62-1.01-.93-.1-.09-.2-.18-.3-.26-.25-.22-.49-.44-.74-.66-.02-.02-.04-.04-.06-.06-.16-.14-.32-.29-.49-.42-.36-.31-.72-.62-1.08-.91-.09-.07-.17-.15-.26-.21-.42-.36-.85-.7-1.29-1.04-.11-.09-.23-.19-.36-.27-.38-.31-.77-.6-1.15-.89-.12-.11-.26-.2-.39-.29-.39-.3-.79-.59-1.2-.87-.16-.12-.32-.24-.48-.34-.49-.35-.99-.69-1.48-1.03-.46-.31-.91-.61-1.37-.9-.01-.01-.03-.02-.04-.03-.2-.13-.4-.26-.6-.39-.38-.24-.76-.48-1.15-.71-.08-.06-.17-.11-.25-.16-.58-.35-1.16-.69-1.75-1.03-.32-.19-.65-.37-.97-.56-.27-.15-.54-.29-.8-.44-.54-.3-1.09-.59-1.63-.87-.12-.07-.25-.13-.37-.19-.52-.27-1.05-.53-1.58-.79-.04-.02-.07-.04-.11-.06-.08-.04-.17-.08-.25-.12-.35-.17-.7-.33-1.05-.49-.05-.02-.1-.04-.15-.07-.19-.09-.38-.17-.57-.26,0,0,0,0-.01,0-.54-.24-1.08-.47-1.62-.7-.47-.2-.95-.39-1.42-.59-.47-.19-.95-.37-1.43-.56-.32-.12-.64-.24-.96-.36-.32-.12-.65-.23-.97-.34-.44-.16-.89-.31-1.34-.46,0,0-.02,0-.02,0-.47-.16-.95-.32-1.43-.47-.01,0-.03,0-.04-.01-.42-.13-.84-.26-1.26-.38-.03,0-.06-.02-.09-.02-.24-.07-.49-.14-.74-.21-.55-.16-1.1-.31-1.65-.46-.46-.12-.91-.23-1.37-.34-.21-.05-.43-.11-.64-.16-.36-.08-.71-.16-1.07-.24,0,0-.01,0-.02,0-.1-.02-.21-.05-.31-.07-.2-.04-.4-.09-.6-.12-.47-.11-.95-.2-1.42-.29-.7-.13-1.4-.26-2.1-.37-.46-.07-.92-.15-1.38-.22-.22-.03-.44-.06-.66-.09-.02,0-.04,0-.06,0-.49-.07-.99-.14-1.48-.19-.56-.07-1.12-.13-1.68-.19-.12-.01-.25-.02-.37-.04h0c-.58-.06-1.16-.11-1.75-.16h-.04v66.68c25.14,3.22,47.76,14.49,65.16,31.15,2.07,1.98,4.07,4.04,5.99,6.17,1.7-1.82,3.44-3.59,5.25-5.29l.13-.75c.01-.06.02-.12.03-.19.09-.51.16-1.02.24-1.53.09-.57.16-1.15.24-1.73.06-.5.12-1,.17-1.5.02-.16.04-.33.05-.5.05-.46.09-.92.13-1.38,0-.09.01-.18.02-.27.04-.54.08-1.08.11-1.62.04-.57.07-1.14.09-1.7,0-.13.01-.26.02-.39.02-.49.03-.98.04-1.47.01-.59.02-1.19.02-1.79,0-.41,0-.82,0-1.22ZM35.86,126.41c3.06-1.79,6.02-3.77,9.18-5.31,9.13-4.45,18.93-2.32,25.65,5.42.83.96,1.71,1.87,2.71,2.67l-21.15,1.33,21.71,1.64c-12.5,11.73-26.54,11.35-38.1-5.75ZM74.64,145.84c5.76-2.6,11.82-1.09,15.85,3.85.5.61,1.03,1.19,1.64,1.71l-13.18.43,13.47,1.43c-7.99,7.06-16.72,6.56-23.59-4.29,1.94-1.05,3.81-2.23,5.81-3.13ZM71.76,171.97c2.44-1.06,4.82-2.28,7.31-3.16,7.2-2.52,14.32-.08,18.66,6.28.54.79,1.11,1.54,1.79,2.23l-15.89-.86,16.05,3.12c-10.34,7.66-20.78,6.15-27.91-7.61Z"/></g><g id="tagline_mateusz_bernacki"><path class="cls-1" d="M489.08,238.13v24.02h-2.44v-19.21l-9.44,16.16h-1.2l-9.44-16.06v19.11h-2.44v-24.02h2.09l10.43,17.81,10.33-17.81h2.09Z"/><path class="cls-1" d="M515.4,255.73h-13.38l-2.88,6.42h-2.64l10.98-24.02h2.5l10.98,24.02h-2.68l-2.88-6.42ZM514.47,253.67l-5.76-12.9-5.76,12.9h11.53Z"/><path class="cls-1" d="M531.83,240.32h-8.44v-2.2h19.42v2.2h-8.44v21.82h-2.54v-21.82Z"/><path class="cls-1" d="M567.27,259.95v2.2h-16.98v-24.02h16.47v2.2h-13.93v8.54h12.42v2.16h-12.42v8.92h14.45Z"/><path class="cls-1" d="M579.08,259.67c-1.74-1.78-2.61-4.38-2.61-7.79v-13.76h2.54v13.66c0,2.79.63,4.87,1.89,6.25,1.26,1.37,3.08,2.06,5.46,2.06s4.23-.69,5.49-2.06c1.26-1.37,1.89-3.45,1.89-6.25v-13.66h2.47v13.76c0,3.41-.86,6-2.59,7.79s-4.15,2.68-7.26,2.68-5.54-.89-7.27-2.68Z"/><path class="cls-1" d="M608.77,261.49c-1.64-.57-2.9-1.33-3.79-2.26l.99-1.96c.87.87,2.02,1.57,3.47,2.11,1.44.54,2.93.81,4.46.81,2.15,0,3.76-.39,4.84-1.18,1.08-.79,1.61-1.81,1.61-3.07,0-.96-.29-1.73-.87-2.3-.58-.57-1.3-1.01-2.14-1.32s-2.02-.65-3.53-1.01c-1.81-.46-3.25-.9-4.32-1.32-1.08-.42-2-1.07-2.76-1.94-.77-.87-1.15-2.05-1.15-3.53,0-1.21.32-2.32.96-3.31.64-1,1.62-1.79,2.95-2.39,1.33-.59,2.97-.89,4.94-.89,1.37,0,2.72.19,4.03.57,1.31.38,2.45.9,3.41,1.56l-.86,2.02c-1.01-.66-2.08-1.16-3.23-1.49-1.14-.33-2.26-.5-3.36-.5-2.1,0-3.69.41-4.75,1.22s-1.6,1.86-1.6,3.14c0,.96.29,1.73.87,2.32.58.58,1.32,1.03,2.2,1.34s2.06.65,3.55,1.01c1.76.43,3.19.86,4.27,1.29,1.09.42,2.01,1.06,2.76,1.92s1.13,2.02,1.13,3.48c0,1.21-.33,2.32-.98,3.31-.65.99-1.65,1.78-3,2.37-1.35.58-3.01.87-4.98.87-1.78,0-3.49-.29-5.13-.86Z"/><path class="cls-1" d="M649.14,259.95v2.2h-19.69v-1.75l15.92-20.07h-15.68v-2.2h19.04v1.75l-15.89,20.07h16.3Z"/><path class="cls-1" d="M688.79,251.8c.86,1.02,1.29,2.33,1.29,3.93,0,2.06-.76,3.64-2.28,4.75-1.52,1.11-3.77,1.66-6.74,1.66h-11.05v-24.02h10.36c2.68,0,4.75.54,6.23,1.61,1.48,1.08,2.21,2.6,2.21,4.56,0,1.33-.33,2.45-.98,3.38s-1.55,1.62-2.69,2.08c1.58.34,2.8,1.02,3.65,2.04ZM672.54,240.22v8.71h7.65c1.94,0,3.44-.37,4.49-1.12,1.05-.74,1.58-1.82,1.58-3.24s-.53-2.5-1.58-3.24-2.55-1.11-4.49-1.11h-7.65ZM685.89,258.95c1.1-.73,1.65-1.88,1.65-3.43,0-3-2.17-4.49-6.52-4.49h-8.47v9.02h8.47c2.15,0,3.77-.37,4.87-1.1Z"/><path class="cls-1" d="M716.29,259.95v2.2h-16.98v-24.02h16.47v2.2h-13.93v8.54h12.42v2.16h-12.42v8.92h14.45Z"/><path class="cls-1" d="M742.09,262.14l-5.49-7.72c-.62.07-1.26.1-1.92.1h-6.45v7.62h-2.54v-24.02h8.99c3.06,0,5.47.73,7.21,2.2,1.74,1.46,2.61,3.48,2.61,6.04,0,1.88-.48,3.46-1.42,4.75-.95,1.29-2.31,2.22-4.07,2.8l5.87,8.23h-2.78ZM740.06,250.79c1.26-1.05,1.89-2.53,1.89-4.43s-.63-3.44-1.89-4.48c-1.26-1.04-3.08-1.56-5.46-1.56h-6.38v12.04h6.38c2.38,0,4.2-.53,5.46-1.58Z"/><path class="cls-1" d="M774,238.13v24.02h-2.09l-15.44-19.49v19.49h-2.54v-24.02h2.09l15.47,19.49v-19.49h2.51Z"/><path class="cls-1" d="M800.31,255.73h-13.38l-2.88,6.42h-2.64l10.98-24.02h2.5l10.98,24.02h-2.68l-2.88-6.42ZM799.39,253.67l-5.76-12.9-5.76,12.9h11.53Z"/><path class="cls-1" d="M816.94,260.77c-1.91-1.05-3.41-2.51-4.49-4.37-1.09-1.86-1.63-3.95-1.63-6.26s.54-4.4,1.63-6.26c1.09-1.86,2.59-3.32,4.51-4.37s4.07-1.58,6.45-1.58c1.78,0,3.43.3,4.94.89,1.51.6,2.79,1.46,3.84,2.61l-1.61,1.61c-1.88-1.9-4.24-2.85-7.1-2.85-1.9,0-3.63.43-5.18,1.3-1.56.87-2.77,2.06-3.65,3.57-.88,1.51-1.32,3.2-1.32,5.08s.44,3.57,1.32,5.08c.88,1.51,2.1,2.7,3.65,3.57s3.28,1.3,5.18,1.3c2.88,0,5.25-.96,7.1-2.88l1.61,1.61c-1.05,1.14-2.34,2.02-3.86,2.62-1.52.61-3.17.91-4.96.91-2.38,0-4.52-.53-6.43-1.58Z"/><path class="cls-1" d="M848.49,250.86l-4.91,4.97v6.31h-2.54v-24.02h2.54v14.51l14.1-14.51h2.92l-10.4,10.88,11.12,13.14h-3.02l-9.81-11.29Z"/><path class="cls-1" d="M868.87,238.13h2.54v24.02h-2.54v-24.02Z"/></g><g id="logo_usugi_ogrodnicze"><path class="cls-1" d="M303.01,176.16c-8.69,0-15.55-3.18-15.55-15.38V41.07h11.54v123.22c0,1,.33,4.51,4.01,4.51,3.18,0,4.35-2.68,4.35-4.51V41.07h11.54v119.71c0,11.7-7.69,15.38-15.88,15.38Z"/><path class="cls-1" d="M353.84,176.16c-8.69,0-15.55-3.18-15.55-15.38v-16.38h11.54v19.06c0,3.34,1.34,5.35,4.18,5.35s4.18-2.34,4.18-5.35v-19.06c0-1.5,0-3.01-.5-4.51-.67-1.84-2.17-3.01-4.18-3.85l-8.69-4.01c-4.51-2.01-6.52-6.52-6.52-10.87V55.95c0-12.21,6.85-15.38,15.55-15.38,8.19,0,15.88,3.85,15.88,15.21v61.36h-11.54V52.6c0-1.5-.67-4.68-4.18-4.68s-4.18,3.01-4.18,4.51v65.54c0,4.51,1.84,6.02,6.02,7.86l6.69,2.84c4.35,1.84,7.19,6.35,7.19,11.04v20.9c0,11.7-7.86,15.55-15.88,15.55Z"/><path class="cls-1" d="M389.45,138.37l-3.68,1v-8.53l3.68-1V41.07h11.54v85.77l6.85-1.84v8.53l-6.85,1.84v31.93h8.53v7.86h-20.06v-36.78Z"/><path class="cls-1" d="M442.28,176.16c-8.69,0-15.55-3.18-15.55-15.38V41.07h11.54v123.22c0,1,.33,4.51,4.01,4.51,3.18,0,4.35-2.68,4.35-4.51V41.07h11.54v119.71c0,11.7-7.69,15.38-15.88,15.38Z"/><path class="cls-1" d="M494.27,176.16c-8.69,0-15.55-3.01-15.55-15.21V55.95c0-12.21,6.85-15.38,15.55-15.38,8.19,0,15.88,3.68,15.88,15.21v53.84l-11.54-.17v-57.01c0-1.5-.67-4.51-4.18-4.51s-4.18,3.01-4.18,4.51v111.85c0,1,.34,4.51,4.01,4.51,3.18,0,4.35-2.68,4.35-4.51v-27.25h-3.68v-8.19h15.21v31.93c0,11.7-7.69,15.38-15.88,15.38Z"/><path class="cls-1" d="M530.05,41.07h11.37v134.09h-11.37V41.07Z"/><path class="cls-1" d="M605.28,176.16c-8.69,0-15.55-3.18-15.55-15.38V55.95c0-12.21,6.85-15.38,15.55-15.38,8.19,0,15.88,3.85,15.88,15.21v105c0,11.7-7.69,15.38-15.88,15.38ZM605.45,47.92c-3.51,0-4.18,3.01-4.18,4.51v111.85c0,1,.33,4.51,4.01,4.51,3.18,0,4.35-2.68,4.35-4.51V52.44c0-1.5-.67-4.51-4.18-4.51Z"/><path class="cls-1" d="M657.27,176.16c-8.69,0-15.55-3.01-15.55-15.21V55.95c0-12.21,6.85-15.38,15.55-15.38,8.19,0,15.88,3.68,15.88,15.21v53.84l-11.54-.17v-57.01c0-1.5-.67-4.51-4.18-4.51s-4.18,3.01-4.18,4.51v111.85c0,1,.33,4.51,4.01,4.51,3.18,0,4.35-2.68,4.35-4.51v-27.25h-3.68v-8.19h15.21v31.93c0,11.7-7.69,15.38-15.88,15.38Z"/><path class="cls-1" d="M712.78,142.39c0-1.84-.84-5.35-4.51-5.35h-3.85v38.12h-11.54V41.07h16.38c10.53,0,15.05,4.85,15.05,17.56v62.03c0,4.18-.84,8.86-6.69,10.2,5.52,1.67,6.69,7.36,6.69,11.7v32.6h-11.54v-32.77ZM708.26,49.26h-3.85v79.75h4.35c3.01,0,4.01-2.84,4.01-4.51V54.61c0-1.84-.67-5.35-4.51-5.35Z"/><path class="cls-1" d="M760.26,176.16c-8.69,0-15.55-3.18-15.55-15.38V55.95c0-12.21,6.85-15.38,15.55-15.38,8.19,0,15.88,3.85,15.88,15.21v105c0,11.7-7.69,15.38-15.88,15.38ZM760.43,47.92c-3.51,0-4.18,3.01-4.18,4.51v111.85c0,1,.33,4.51,4.01,4.51,3.18,0,4.35-2.68,4.35-4.51V52.44c0-1.5-.67-4.51-4.18-4.51Z"/><path class="cls-1" d="M811.25,175.16h-14.55V41.07h14.55c10.7,0,16.89,3.68,16.89,14.55v103.99c0,12.37-5.69,15.55-16.89,15.55ZM811.58,48.42h-3.34v118.87h3.34c3.01,0,5.02-2.17,5.02-5.02V53.44c0-2.67-1.67-5.02-5.02-5.02Z"/><path class="cls-1" d="M860.07,45.58s1.67-5.18,9.86-5.18c6.19,0,10.2,4.01,10.2,12.71v123.05h-11.54V54.28c0-2.67-.33-5.18-4.18-5.18s-4.18,2.51-4.18,5.18v121.88h-11.54V41.07h11.54l-.17,4.51Z"/><path class="cls-1" d="M900.86,41.07h11.37v134.09h-11.37V41.07Z"/><path class="cls-1" d="M948.34,176.16c-8.69,0-15.55-3.01-15.55-15.21V55.95c0-12.21,6.85-15.38,15.55-15.38,8.19,0,15.88,3.68,15.88,15.21v61.36h-11.54V52.44c0-1.5-.67-4.51-4.18-4.51s-4.18,3.01-4.18,4.51v111.85c0,1,.33,4.51,4.01,4.51,3.18,0,4.35-2.68,4.35-4.51v-27.25h11.54v23.74c0,11.7-7.69,15.38-15.88,15.38Z"/><path class="cls-1" d="M1027.08,41.07h21.74v8.19h-10.2v79.75h10.2v8.02h-10.2v30.26h10.2v8.19h-21.74V41.07Z"/><polygon class="cls-1" points="1007.58 41.17 982.03 41.17 982.03 49.26 995.76 49.26 982.03 167.3 982.03 175.16 1007.58 175.16 1007.58 167.3 993.63 167.3 1007.58 49.26 1007.58 41.17"/></g></svg>